<svg xmlns="http://www.w3.org/2000/svg" width="410" height="411" viewBox="0 0 410 411" fill="none"><g filter="url(#filter0_f_207_123)"><path d="M205.311 355.119C166.738 355.085 129.652 340.237 101.713 313.641C73.7751 287.045 57.12 250.733 55.1888 212.208C53.2577 173.682 66.198 135.887 91.3365 106.63C116.475 77.3736 151.891 58.8906 190.267 55V115.779C173.949 118.54 158.705 125.738 146.205 136.586C133.706 147.434 124.433 161.512 119.402 177.279C114.371 193.047 113.776 209.894 117.683 225.977C121.59 242.06 129.847 256.757 141.551 268.459C153.254 280.162 167.953 288.417 184.036 292.321C200.119 296.226 216.966 295.629 232.732 290.595C248.499 285.562 262.576 276.287 273.422 263.785C284.267 251.284 291.464 236.039 294.222 219.72H354.985C351.207 256.809 333.812 291.181 306.164 316.19C278.515 341.199 242.577 355.069 205.296 355.119H205.311ZM355 189.631H294.222C291.098 171.177 282.309 154.152 269.073 140.919C255.837 127.685 238.81 118.899 220.355 115.779V55C254.857 58.529 287.088 73.8449 311.614 98.3662C336.14 122.888 351.463 155.115 355 189.616V189.631V189.631Z" fill="url(#paint0_linear_207_123)" fill-opacity="0.55"></path></g><path d="M205.311 355.119C166.738 355.085 129.652 340.237 101.713 313.641C73.7751 287.045 57.12 250.733 55.1888 212.208C53.2577 173.682 66.198 135.887 91.3365 106.63C116.475 77.3736 151.891 58.8906 190.267 55V115.779C173.949 118.54 158.705 125.738 146.205 136.586C133.706 147.434 124.433 161.512 119.402 177.279C114.371 193.047 113.776 209.894 117.683 225.977C121.59 242.06 129.847 256.757 141.551 268.459C153.254 280.162 167.953 288.417 184.036 292.321C200.119 296.226 216.966 295.629 232.732 290.595C248.499 285.562 262.576 276.287 273.422 263.785C284.267 251.284 291.464 236.039 294.222 219.72H354.985C351.207 256.809 333.812 291.181 306.164 316.19C278.515 341.199 242.577 355.069 205.296 355.119H205.311ZM355 189.631H294.222C291.098 171.177 282.309 154.152 269.073 140.919C255.837 127.685 238.81 118.899 220.355 115.779V55C254.857 58.529 287.088 73.8449 311.614 98.3662C336.14 122.888 351.463 155.115 355 189.616V189.631V189.631Z" fill="url(#paint1_linear_207_123)"></path><defs><filter id="filter0_f_207_123" x="0" y="0" width="410" height="410.119" filterUnits="userSpaceOnUse" color-interpolation-filters="sRGB"><feGaussianBlur stdDeviation="27.5"></feGaussianBlur></filter><linearGradient id="paint0_linear_207_123" x1="55" y1="355.119" x2="355.119" y2="55.1187" gradientUnits="userSpaceOnUse"><stop stop-color="#28E0B2"></stop><stop offset="1" stop-color="#28E0B2"></stop></linearGradient><linearGradient id="paint1_linear_207_123" x1="55" y1="355.119" x2="355.119" y2="55.1187" gradientUnits="userSpaceOnUse"><stop stop-color="#28E0B2"></stop><stop offset="1" stop-color="#28E0B2"></stop></linearGradient></defs></svg>