<svg xmlns="http://www.w3.org/2000/svg" width="410" height="410" viewBox="0 0 410 410" fill="none"><g filter="url(#filter0_f_207_130)"><path d="M353.331 200.061C352.25 196.475 350.324 193.201 347.716 190.515C345.725 188.367 343.169 186.823 340.341 186.06C341.726 188.25 342.98 190.777 343.916 193.472C344.964 196.223 345.638 199.162 345.844 202.213C346.159 204.849 346.159 207.513 345.844 210.149C345.26 208.195 344.362 206.35 343.186 204.684C340.868 201.551 337.771 199.08 334.202 197.515C330.248 195.735 325.776 195.48 321.647 196.8C317.517 198.12 314.022 200.922 311.834 204.665C310.898 206.2 310.15 207.866 309.588 209.644C287.464 172.808 247.652 148.419 202.131 148.419C199.81 148.419 197.508 148.475 195.224 148.606C181.102 148.633 167.05 150.604 153.466 154.465C152.305 146.341 141.636 129.87 92.5963 129.87L107.57 176.851C98.1544 184.462 90.239 193.761 84.2296 204.272L55.1613 204.74C55.1613 204.74 51.9794 279.61 73.8788 279.61H83.9863C90.8672 291.274 100.074 301.397 111.033 309.352L111.314 354.48H131.529C156.049 354.48 167.466 354.48 167.466 340.442V333.142C186.346 336.64 205.712 336.59 224.573 332.992L223.619 340.442C223.619 354.48 235.224 354.48 259.931 354.48H279.771V309.745C297.322 297.577 309.953 279.543 315.391 258.89C316.457 258.384 317.524 258.44 318.61 258.44C319.696 258.44 320.762 258.384 321.829 258.253C326.527 257.392 330.814 255.558 334.539 252.956C339.573 249.395 343.425 244.408 345.601 238.637C346.125 236.897 346.518 235.062 346.78 233.172L346.798 232.985C350.935 228.081 353.761 221.941 354.641 215.184C355.406 210.021 354.944 204.75 353.293 199.799L353.331 200.061ZM120.86 200.061C124.583 200.061 128.153 201.54 130.786 204.172C133.419 206.805 134.898 210.376 134.898 214.099C134.898 217.822 133.419 221.392 130.786 224.025C128.153 226.658 124.583 228.137 120.86 228.137C117.137 228.137 113.566 226.658 110.933 224.025C108.301 221.392 106.822 217.822 106.822 214.099C106.822 210.376 108.301 206.805 110.933 204.172C113.566 201.54 117.137 200.061 120.86 200.061V200.061ZM165.22 186.022C163.106 186.7 160.821 186.608 158.769 185.762C156.716 184.916 155.03 183.37 154.008 181.399C153.69 180.417 153.584 179.379 153.696 178.352C153.809 177.326 154.137 176.335 154.661 175.446C155.185 174.556 155.891 173.787 156.734 173.191C157.576 172.594 158.536 172.183 159.549 171.984C171.86 169.032 184.494 167.649 197.152 167.867L199.043 167.848C211.621 167.848 223.825 169.345 235.523 172.19C237.881 172.639 240.427 175.597 240.427 179.153C240.426 179.91 240.306 180.661 240.071 181.381C239.416 182.594 238.492 183.642 237.369 184.443C236.247 185.244 234.956 185.778 233.595 186.004H230.731C220.275 183.486 209.555 182.229 198.799 182.26H197.133C185.809 182.26 174.803 183.627 164.266 186.21L165.22 186.022ZM328.062 240.865C325.537 242.702 322.645 243.972 319.583 244.589L317.206 244.608V242.175V236.373C320.295 238.712 324.206 240.116 328.437 240.116H328.83L328.062 240.865ZM329.56 228.137C327.82 228.381 326.048 228.062 324.502 227.227C322.956 226.391 321.718 225.084 320.968 223.495C320.111 221.86 319.664 220.041 319.667 218.196C319.671 216.35 320.124 214.532 320.987 212.901C321.877 211.669 323.187 210.806 324.67 210.475C326.153 210.144 327.706 210.368 329.036 211.104C330.732 211.755 332.19 212.905 333.22 214.402C334.249 215.899 334.8 217.673 334.801 219.489V219.508C335.17 222.103 335.164 224.738 334.782 227.332C333.043 227.667 331.273 227.805 329.504 227.744L329.56 228.137Z" fill="url(#paint0_linear_207_130)" fill-opacity="0.55"></path><path d="M204.898 111.152H186.181V107.97H190.86V87.5677H186.181L196.475 77.2727H200.219V107.97H204.898V111.152Z" fill="url(#paint1_linear_207_130)" fill-opacity="0.55"></path><path d="M195.539 69.0381C199.227 69.0393 202.879 69.767 206.286 71.1796C209.693 72.5922 212.789 74.662 215.396 77.2708C218.003 79.8797 220.071 82.9765 221.481 86.3845C222.891 89.7924 223.617 93.4448 223.615 97.1331C223.614 100.821 222.886 104.473 221.474 107.88C220.061 111.287 217.992 114.383 215.383 116.99C212.774 119.597 209.677 121.665 206.269 123.075C202.861 124.485 199.209 125.211 195.52 125.209C188.072 125.207 180.929 122.245 175.664 116.977C170.398 111.708 167.442 104.563 167.444 97.1144C167.447 89.6656 170.408 82.5229 175.677 77.2576C180.946 71.9923 188.09 69.0356 195.539 69.0381V69.0381ZM195.539 55C184.37 55 173.658 59.437 165.76 67.335C157.862 75.233 153.425 85.9449 153.425 97.1144C153.425 108.284 157.862 118.996 165.76 126.894C173.658 134.792 184.37 139.229 195.539 139.229C206.709 139.229 217.421 134.792 225.318 126.894C233.216 118.996 237.654 108.284 237.654 97.1144C237.654 85.9449 233.216 75.233 225.318 67.335C217.421 59.437 206.709 55 195.539 55V55Z" fill="url(#paint2_linear_207_130)" fill-opacity="0.55"></path></g><path d="M353.331 200.061C352.25 196.475 350.324 193.201 347.716 190.515C345.725 188.367 343.169 186.823 340.341 186.06C341.726 188.25 342.98 190.777 343.916 193.472C344.964 196.223 345.638 199.162 345.844 202.213C346.159 204.849 346.159 207.513 345.844 210.149C345.26 208.195 344.362 206.35 343.186 204.684C340.868 201.551 337.771 199.08 334.202 197.515C330.248 195.735 325.776 195.48 321.647 196.8C317.517 198.12 314.022 200.922 311.834 204.665C310.898 206.2 310.15 207.866 309.588 209.644C287.464 172.808 247.652 148.419 202.131 148.419C199.81 148.419 197.508 148.475 195.224 148.606C181.102 148.633 167.05 150.604 153.466 154.465C152.305 146.341 141.636 129.87 92.5963 129.87L107.57 176.851C98.1544 184.462 90.239 193.761 84.2296 204.272L55.1613 204.74C55.1613 204.74 51.9794 279.61 73.8788 279.61H83.9863C90.8672 291.274 100.074 301.397 111.033 309.352L111.314 354.48H131.529C156.049 354.48 167.466 354.48 167.466 340.442V333.142C186.346 336.64 205.712 336.59 224.573 332.992L223.619 340.442C223.619 354.48 235.224 354.48 259.931 354.48H279.771V309.745C297.322 297.577 309.953 279.543 315.391 258.89C316.457 258.384 317.524 258.44 318.61 258.44C319.696 258.44 320.762 258.384 321.829 258.253C326.527 257.392 330.814 255.558 334.539 252.956C339.573 249.395 343.425 244.408 345.601 238.637C346.125 236.897 346.518 235.062 346.78 233.172L346.798 232.985C350.935 228.081 353.761 221.941 354.641 215.184C355.406 210.021 354.944 204.75 353.293 199.799L353.331 200.061ZM120.86 200.061C124.583 200.061 128.153 201.54 130.786 204.172C133.419 206.805 134.898 210.376 134.898 214.099C134.898 217.822 133.419 221.392 130.786 224.025C128.153 226.658 124.583 228.137 120.86 228.137C117.137 228.137 113.566 226.658 110.933 224.025C108.301 221.392 106.822 217.822 106.822 214.099C106.822 210.376 108.301 206.805 110.933 204.172C113.566 201.54 117.137 200.061 120.86 200.061V200.061ZM165.22 186.022C163.106 186.7 160.821 186.608 158.769 185.762C156.716 184.916 155.03 183.37 154.008 181.399C153.69 180.417 153.584 179.379 153.696 178.352C153.809 177.326 154.137 176.335 154.661 175.446C155.185 174.556 155.891 173.787 156.734 173.191C157.576 172.594 158.536 172.183 159.549 171.984C171.86 169.032 184.494 167.649 197.152 167.867L199.043 167.848C211.621 167.848 223.825 169.345 235.523 172.19C237.881 172.639 240.427 175.597 240.427 179.153C240.426 179.91 240.306 180.661 240.071 181.381C239.416 182.594 238.492 183.642 237.369 184.443C236.247 185.244 234.956 185.778 233.595 186.004H230.731C220.275 183.486 209.555 182.229 198.799 182.26H197.133C185.809 182.26 174.803 183.627 164.266 186.21L165.22 186.022ZM328.062 240.865C325.537 242.702 322.645 243.972 319.583 244.589L317.206 244.608V242.175V236.373C320.295 238.712 324.206 240.116 328.437 240.116H328.83L328.062 240.865ZM329.56 228.137C327.82 228.381 326.048 228.062 324.502 227.227C322.956 226.391 321.718 225.084 320.968 223.495C320.111 221.86 319.664 220.041 319.667 218.196C319.671 216.35 320.124 214.532 320.987 212.901C321.877 211.669 323.187 210.806 324.67 210.475C326.153 210.144 327.706 210.368 329.036 211.104C330.732 211.755 332.19 212.905 333.22 214.402C334.249 215.899 334.8 217.673 334.801 219.489V219.508C335.17 222.103 335.164 224.738 334.782 227.332C333.043 227.667 331.273 227.805 329.504 227.744L329.56 228.137Z" fill="url(#paint3_linear_207_130)"></path><path d="M204.898 111.152H186.181V107.97H190.86V87.5677H186.181L196.475 77.2727H200.219V107.97H204.898V111.152Z" fill="url(#paint4_linear_207_130)"></path><path d="M195.539 69.0381C199.227 69.0393 202.879 69.767 206.286 71.1796C209.693 72.5922 212.789 74.662 215.396 77.2708C218.003 79.8797 220.071 82.9765 221.481 86.3845C222.891 89.7924 223.617 93.4448 223.615 97.1331C223.614 100.821 222.886 104.473 221.474 107.88C220.061 111.287 217.992 114.383 215.383 116.99C212.774 119.597 209.677 121.665 206.269 123.075C202.861 124.485 199.209 125.211 195.52 125.209C188.072 125.207 180.929 122.245 175.664 116.977C170.398 111.708 167.442 104.563 167.444 97.1144C167.447 89.6656 170.408 82.5229 175.677 77.2576C180.946 71.9923 188.09 69.0356 195.539 69.0381V69.0381ZM195.539 55C184.37 55 173.658 59.437 165.76 67.335C157.862 75.233 153.425 85.9449 153.425 97.1144C153.425 108.284 157.862 118.996 165.76 126.894C173.658 134.792 184.37 139.229 195.539 139.229C206.709 139.229 217.421 134.792 225.318 126.894C233.216 118.996 237.654 108.284 237.654 97.1144C237.654 85.9449 233.216 75.233 225.318 67.335C217.421 59.437 206.709 55 195.539 55V55Z" fill="url(#paint5_linear_207_130)"></path><defs><filter id="filter0_f_207_130" x="0" y="0" width="410" height="409.48" filterUnits="userSpaceOnUse" color-interpolation-filters="sRGB"><feGaussianBlur stdDeviation="27.5"></feGaussianBlur></filter><linearGradient id="paint0_linear_207_130" x1="55" y1="354.48" x2="270.52" y2="66.6202" gradientUnits="userSpaceOnUse"><stop stop-color="#28E0B2"></stop><stop offset="1" stop-color="#28E0B2"></stop></linearGradient><linearGradient id="paint1_linear_207_130" x1="186.181" y1="111.152" x2="214.862" y2="95.3071" gradientUnits="userSpaceOnUse"><stop stop-color="#28E0B2"></stop><stop offset="1" stop-color="#28E0B2"></stop></linearGradient><linearGradient id="paint2_linear_207_130" x1="153.425" y1="139.229" x2="237.654" y2="55" gradientUnits="userSpaceOnUse"><stop stop-color="#28E0B2"></stop><stop offset="1" stop-color="#28E0B2"></stop></linearGradient><linearGradient id="paint3_linear_207_130" x1="55" y1="354.48" x2="270.52" y2="66.6202" gradientUnits="userSpaceOnUse"><stop stop-color="#28E0B2"></stop><stop offset="1" stop-color="#28E0B2"></stop></linearGradient><linearGradient id="paint4_linear_207_130" x1="186.181" y1="111.152" x2="214.862" y2="95.3071" gradientUnits="userSpaceOnUse"><stop stop-color="#28E0B2"></stop><stop offset="1" stop-color="#28E0B2"></stop></linearGradient><linearGradient id="paint5_linear_207_130" x1="153.425" y1="139.229" x2="237.654" y2="55" gradientUnits="userSpaceOnUse"><stop stop-color="#28E0B2"></stop><stop offset="1" stop-color="#28E0B2"></stop></linearGradient></defs></svg>