<svg clip-rule="evenodd" fill-rule="evenodd" viewBox="0 0 43 41" xmlns="http://www.w3.org/2000/svg"><path d="m11.999 14.477c6.627 0 12-3.166 12-7.072 0-3.905-5.373-7.071-12-7.071s-12 3.166-12 7.071c0 3.906 5.373 7.072 12 7.072zm.085 14.571c-.056-.564-.085-1.136-.085-1.715 0-1.483.19-2.921.546-4.292-.181.005-.363.007-.546.007-4.807 0-8.954-1.666-10.87-4.071-.725.91-1.13 1.927-1.13 3 0 3.905 5.373 7.071 12 7.071zm.179 1.284c.375 2.111 1.141 4.086 2.218 5.85-.801.1-1.631.152-2.482.152-6.627 0-12-3.166-12-7.072 0-1.072.405-2.089 1.13-3 1.916 2.406 6.063 4.072 10.87 4.072.088 0 .176-.001.264-.002zm4.979-15.279c-1.584.455-3.363.709-5.243.709-4.807 0-8.954-1.666-10.87-4.071-.725.911-1.13 1.927-1.13 3 0 3.905 5.373 7.071 12 7.071.317 0 .631-.007.941-.021.893-2.564 2.382-4.849 4.302-6.688z" fill="#a4abe2"/><circle cx="28.847" cy="26.922" fill="#4957c6" r="12.464" stroke="#4957c6" stroke-width="1.89"/><path d="m27.78 36.309v-2.248c-.642-.075-1.32-.255-2.035-.54-.7-.3-1.306-.689-1.816-1.169l1.4-2.226c.555.435 1.08.765 1.576.989.511.21 1.028.315 1.554.315.612 0 1.057-.127 1.335-.382.291-.255.437-.645.437-1.169 0-.39-.146-.72-.437-.989-.278-.27-.635-.525-1.073-.765-.423-.255-.882-.502-1.378-.742-.496-.255-.963-.554-1.401-.899-.423-.345-.781-.75-1.072-1.214-.277-.465-.416-1.034-.416-1.709 0-1.109.292-2.024.875-2.743.598-.734 1.415-1.207 2.451-1.416v-2.316h2.123v2.271c.7.104 1.313.322 1.838.652.525.329 1 .727 1.423 1.191l-1.62 1.889c-.394-.375-.773-.652-1.138-.832-.364-.195-.78-.292-1.247-.292-.525 0-.926.112-1.204.337-.277.225-.415.592-.415 1.102 0 .359.138.667.415.921.292.24.65.473 1.073.697.437.225.904.458 1.4.697.496.24.956.533 1.379.877.438.345.795.765 1.072 1.259.292.48.438 1.08.438 1.799 0 1.079-.285 2.009-.854 2.788-.569.764-1.422 1.274-2.56 1.529v2.338z" fill="#fff" fill-rule="nonzero"/></svg>