<svg clip-rule="evenodd" fill-rule="evenodd" viewBox="0 0 65 64" xmlns="http://www.w3.org/2000/svg"><path d="m32.332 14.763c0 5.207-7.163 9.428-16 9.428s-16-4.221-16-9.428c0-5.208 7.163-9.429 16-9.429s16 4.221 16 9.429zm-30.493 15.428c2.543 3.194 8.037 5.41 14.413 5.429-2.641 1.621-4.544 4.327-5.091 7.496-6.299-1.267-10.829-4.784-10.829-8.925 0-1.43.54-2.786 1.507-4zm0 9.714c1.809 2.273 5.112 4.05 9.163 4.893-.001.067-.002.135-.002.202 0 3.307 1.46 6.273 3.769 8.29-8.103-.463-14.437-4.488-14.437-9.385 0-1.43.54-2.785 1.507-4zm23.881-15.792c-2.637 1.127-5.881 1.792-9.388 1.792-6.41 0-11.939-2.221-14.493-5.428-.967 1.214-1.507 2.57-1.507 4 0 5.207 7.163 9.428 16 9.428 2.002 0 3.918-.216 5.685-.612.163-3.51 1.532-6.706 3.703-9.18z" fill="#e7e9eb" fill-opacity=".5"/><path d="m49.774 30.704.256.833.861-.14c.624-.101 1.259-.159 1.902-.159 6.213 0 11.207 4.895 11.207 10.882 0 5.982-4.994 10.88-11.207 10.88h-29.57c-4.568 0-8.223-3.598-8.223-7.978s3.654-7.973 8.222-7.974c.326.001.65.021.973.061l1.306.161-.195-1.302c-.087-.583-.134-1.173-.134-1.771 0-6.71 5.598-12.197 12.566-12.197 5.702 0 10.493 3.682 12.036 8.704z" fill="none" stroke="#e7e9eb" stroke-width="2"/><path d="m44.5 44v10h-10v-10h-6.5l11.5-13 11.5 13z" fill="#fff" fill-rule="nonzero"/></svg>