<?xml version="1.0" encoding="UTF-8"?> <svg xmlns="http://www.w3.org/2000/svg" width="80" height="80" viewBox="0 0 80 80" fill="none"><path d="M60.9501 18.9253C60.9501 20.1066 59.9914 21.0655 58.8099 21.0655H11.7261C10.5448 21.0655 9.58594 20.1067 9.58594 18.9253V10.3646C9.58594 9.18332 10.5447 8.22443 11.7261 8.22443H58.8099C59.9912 8.22443 60.9501 9.18317 60.9501 10.3646V18.9253Z" fill="#C5CAE9"></path><path d="M69.5097 31.7668C69.5097 32.9481 68.551 33.907 67.3695 33.907H20.2857C19.1044 33.907 18.1455 32.9483 18.1455 31.7668V23.2061C18.1455 22.0248 19.1043 21.0659 20.2857 21.0659H67.3695C68.5508 21.0659 69.5097 22.0247 69.5097 23.2061V31.7668Z" fill="#C5CAE9"></path><path d="M65.2294 44.6075C65.2294 45.7888 64.2707 46.7477 63.0892 46.7477H16.0054C14.8241 46.7477 13.8652 45.7889 13.8652 44.6075V36.0468C13.8652 34.8655 14.824 33.9066 16.0054 33.9066H63.0892C64.2706 33.9066 65.2294 34.8654 65.2294 36.0468V44.6075Z" fill="#C5CAE9"></path><path d="M69.5097 57.4489C69.5097 58.6302 68.551 59.5891 67.3695 59.5891H20.2857C19.1044 59.5891 18.1455 58.6304 18.1455 57.4489V48.8882C18.1455 47.7069 19.1043 46.748 20.2857 46.748H67.3695C68.5508 46.748 69.5097 47.7068 69.5097 48.8882V57.4489Z" fill="#C5CAE9"></path><path d="M60.9492 70.2896C60.9492 71.4709 59.9904 72.4298 58.809 72.4298H11.7252C10.5439 72.4298 9.58496 71.471 9.58496 70.2896V61.7289C9.58496 60.5476 10.5437 59.5887 11.7252 59.5887H58.809C59.9903 59.5887 60.9492 60.5475 60.9492 61.7289V70.2896Z" fill="#C5CAE9"></path><path d="M24.5646 8.22455H20.2842V21.0656H24.5646V8.22455Z" fill="url(#paint0_linear)"></path><path d="M24.5646 8.22455H20.2842V21.0656H24.5646V8.22455Z" fill="url(#paint1_linear)"></path><path d="M24.5646 8.22455H20.2842V21.0656H24.5646V8.22455Z" fill="url(#paint2_linear)"></path><path d="M37.3165 8.22452H33.0361V21.0656H37.3165V8.22452Z" fill="url(#paint3_linear)"></path><path d="M37.3165 8.22452H33.0361V21.0656H37.3165V8.22452Z" fill="url(#paint4_linear)"></path><path d="M37.3165 8.22452H33.0361V21.0656H37.3165V8.22452Z" fill="url(#paint5_linear)"></path><path d="M50.0685 8.22452H45.7881V21.0656H50.0685V8.22452Z" fill="url(#paint6_linear)"></path><path d="M50.0685 8.22452H45.7881V21.0656H50.0685V8.22452Z" fill="url(#paint7_linear)"></path><path d="M50.0685 8.22452H45.7881V21.0656H50.0685V8.22452Z" fill="url(#paint8_linear)"></path><path d="M33.1281 21.0659H28.8477V33.907H33.1281V21.0659Z" fill="url(#paint9_linear)"></path><path d="M33.1281 21.0659H28.8477V33.907H33.1281V21.0659Z" fill="url(#paint10_linear)"></path><path d="M33.1281 21.0659H28.8477V33.907H33.1281V21.0659Z" fill="url(#paint11_linear)"></path><path d="M45.8781 21.0659H41.5977V33.907H45.8781V21.0659Z" fill="url(#paint12_linear)"></path><path d="M45.8781 21.0659H41.5977V33.907H45.8781V21.0659Z" fill="url(#paint13_linear)"></path><path d="M45.8781 21.0659H41.5977V33.907H45.8781V21.0659Z" fill="url(#paint14_linear)"></path><path d="M28.8449 33.9066H24.5645V46.7477H28.8449V33.9066Z" fill="#E8EAF6"></path><path d="M24.5646 59.5887H20.2842V72.4298H24.5646V59.5887Z" fill="url(#paint15_linear)"></path><path d="M24.5646 59.5887H20.2842V72.4298H24.5646V59.5887Z" fill="url(#paint16_linear)"></path><path d="M24.5646 59.5887H20.2842V72.4298H24.5646V59.5887Z" fill="url(#paint17_linear)"></path><path d="M75.4244 13.0475C72.3618 13.4777 70.6143 15.2241 70.1852 18.2867C70.1659 18.414 69.9905 18.414 69.9745 18.2867C69.5433 15.2241 67.7958 13.4777 64.7332 13.0475C64.6059 13.0282 64.6059 12.8528 64.7332 12.8368C67.7958 12.4056 69.5433 10.6592 69.9735 7.59551C69.9917 7.46816 70.1672 7.46816 70.1842 7.59551C70.6133 10.6592 72.3608 12.4056 75.4234 12.8368C75.5517 12.8527 75.5517 13.0282 75.4244 13.0475Z" fill="url(#paint18_linear)"></path><path d="M75.4244 13.0475C72.3618 13.4777 70.6143 15.2241 70.1852 18.2867C70.1659 18.414 69.9905 18.414 69.9745 18.2867C69.5433 15.2241 67.7958 13.4777 64.7332 13.0475C64.6059 13.0282 64.6059 12.8528 64.7332 12.8368C67.7958 12.4056 69.5433 10.6592 69.9735 7.59551C69.9917 7.46816 70.1672 7.46816 70.1842 7.59551C70.6133 10.6592 72.3608 12.4056 75.4234 12.8368C75.5517 12.8527 75.5517 13.0282 75.4244 13.0475Z" fill="url(#paint19_linear)"></path><path d="M75.4244 13.0475C72.3618 13.4777 70.6143 15.2241 70.1852 18.2867C70.1659 18.414 69.9905 18.414 69.9745 18.2867C69.5433 15.2241 67.7958 13.4777 64.7332 13.0475C64.6059 13.0282 64.6059 12.8528 64.7332 12.8368C67.7958 12.4056 69.5433 10.6592 69.9735 7.59551C69.9917 7.46816 70.1672 7.46816 70.1842 7.59551C70.6133 10.6592 72.3608 12.4056 75.4234 12.8368C75.5517 12.8527 75.5517 13.0282 75.4244 13.0475Z" fill="url(#paint20_linear)"></path><path d="M13.7857 28.5714C10.7231 29.0016 8.97675 30.749 8.54542 33.8105C8.52836 33.9379 8.35284 33.9379 8.33465 33.8105C7.90445 30.749 6.15807 29.0016 3.09551 28.5714C2.96816 28.5543 2.96816 28.3777 3.09551 28.3606C6.15807 27.9304 7.90445 26.1831 8.33465 23.1203C8.35398 22.9941 8.52936 22.9941 8.54542 23.1203C8.97661 26.1829 10.723 27.9304 13.7857 28.3606C13.913 28.3778 13.913 28.5543 13.7857 28.5714Z" fill="url(#paint21_linear)"></path><path d="M13.7857 28.5714C10.7231 29.0016 8.97675 30.749 8.54542 33.8105C8.52836 33.9379 8.35284 33.9379 8.33465 33.8105C7.90445 30.749 6.15807 29.0016 3.09551 28.5714C2.96816 28.5543 2.96816 28.3777 3.09551 28.3606C6.15807 27.9304 7.90445 26.1831 8.33465 23.1203C8.35398 22.9941 8.52936 22.9941 8.54542 23.1203C8.97661 26.1829 10.723 27.9304 13.7857 28.3606C13.913 28.3778 13.913 28.5543 13.7857 28.5714Z" fill="url(#paint22_linear)"></path><path d="M13.7857 28.5714C10.7231 29.0016 8.97675 30.749 8.54542 33.8105C8.52836 33.9379 8.35284 33.9379 8.33465 33.8105C7.90445 30.749 6.15807 29.0016 3.09551 28.5714C2.96816 28.5543 2.96816 28.3777 3.09551 28.3606C6.15807 27.9304 7.90445 26.1831 8.33465 23.1203C8.35398 22.9941 8.52936 22.9941 8.54542 23.1203C8.97661 26.1829 10.723 27.9304 13.7857 28.3606C13.913 28.3778 13.913 28.5543 13.7857 28.5714Z" fill="url(#paint23_linear)"></path><path d="M51.3178 24.2761C63.7084 24.2761 73.7897 34.3575 73.7897 46.748C73.7897 59.1397 63.7084 69.2199 51.3178 69.2199C38.9273 69.2199 28.846 59.1397 28.846 46.748C28.8461 34.3575 38.9273 24.2761 51.3178 24.2761ZM51.3178 21.0659C37.1339 21.0659 25.6357 32.564 25.6357 46.748C25.6357 60.9319 37.1339 72.4301 51.3178 72.4301C65.5018 72.4301 77 60.9319 77 46.748C77 32.564 65.5019 21.0659 51.3178 21.0659Z" fill="#E8EAF6"></path><path d="M51.3186 69.2199C38.928 69.2199 28.8467 59.1397 28.8467 46.748C28.8467 34.3575 38.928 24.2761 51.3186 24.2761C63.7091 24.2761 73.7904 34.3575 73.7904 46.748C73.7904 59.1397 63.7091 69.2199 51.3186 69.2199Z" fill="#1EA2AD"></path><path d="M51.3186 24.2761C38.9269 24.2761 28.8467 34.3575 28.8467 46.748C28.8467 53.1247 31.522 58.886 35.8022 62.979L67.5496 31.2317C63.4565 26.9514 57.6952 24.2761 51.3186 24.2761Z" fill="#21BDCA"></path><path d="M51.8876 30.7243C52.8111 30.7243 53.5441 31.4573 53.5441 32.3808V33.2294C55.8169 33.499 57.7442 34.2311 59.5163 35.3472C60.1327 35.6928 60.672 36.2717 60.672 37.1963C60.672 38.3916 59.709 39.3151 58.5127 39.3151C58.1285 39.3151 57.7422 39.2005 57.3569 38.9683C56.0086 38.1593 54.701 37.5815 53.3901 37.2732V44.6707C59.2456 46.1346 61.7506 48.4834 61.7506 52.6086C61.7506 56.8451 58.4376 59.6584 53.5441 60.1217V60.9233C53.5441 61.8468 52.8111 62.5808 51.8876 62.5808C50.9631 62.5808 50.1925 61.8468 50.1925 60.9233V60.0437C47.3033 59.7366 44.6429 58.6964 42.2941 57.0388C41.6392 56.615 41.2529 55.9986 41.2529 55.1887C41.2529 53.9956 42.1774 53.0709 43.3717 53.0709C43.835 53.0709 44.2962 53.2261 44.6429 53.4947C46.4524 54.8057 48.2255 55.6917 50.3433 56.0758V48.4846C44.7178 47.0217 42.0993 44.902 42.0993 40.5488C42.0993 36.4257 45.3737 33.5751 50.1902 33.1898V32.3808C50.1926 31.4572 50.9631 30.7243 51.8876 30.7243ZM50.3467 43.8616V37.0441C47.8812 37.2742 46.6484 38.584 46.6484 40.2789C46.6484 41.897 47.3793 42.8975 50.3467 43.8616ZM53.3911 49.2185V56.2307C55.8576 55.959 57.2049 54.7284 57.2049 52.8781C57.2049 51.1832 56.3563 50.142 53.3911 49.2185Z" fill="white"></path><path d="M28.846 46.748C28.846 34.3575 38.9273 24.2761 51.3178 24.2761C57.6773 24.2761 63.4248 26.9363 67.5179 31.1985L69.7961 28.9203C65.1242 24.0814 58.5752 21.0659 51.3178 21.0659C37.1339 21.0659 25.6357 32.564 25.6357 46.748C25.6357 54.0064 28.6501 60.5542 33.4902 65.2263L35.7684 62.9481C31.5062 58.855 28.846 53.1075 28.846 46.748Z" fill="url(#paint24_linear)"></path><path d="M28.846 46.748C28.846 34.3575 38.9273 24.2761 51.3178 24.2761C57.6773 24.2761 63.4248 26.9363 67.5179 31.1985L69.7961 28.9203C65.1242 24.0814 58.5752 21.0659 51.3178 21.0659C37.1339 21.0659 25.6357 32.564 25.6357 46.748C25.6357 54.0064 28.6501 60.5542 33.4902 65.2263L35.7684 62.9481C31.5062 58.855 28.846 53.1075 28.846 46.748Z" fill="url(#paint25_linear)"></path><path d="M28.846 46.748C28.846 34.3575 38.9273 24.2761 51.3178 24.2761C57.6773 24.2761 63.4248 26.9363 67.5179 31.1985L69.7961 28.9203C65.1242 24.0814 58.5752 21.0659 51.3178 21.0659C37.1339 21.0659 25.6357 32.564 25.6357 46.748C25.6357 54.0064 28.6501 60.5542 33.4902 65.2263L35.7684 62.9481C31.5062 58.855 28.846 53.1075 28.846 46.748Z" fill="url(#paint26_linear)"></path><defs><linearGradient id="paint0_linear" x1="15.7488" y1="-9.71216" x2="31.5808" y2="-2.34433" gradientUnits="userSpaceOnUse"><stop stop-color="#E8EAF6"></stop><stop offset="1" stop-color="white"></stop></linearGradient><linearGradient id="paint1_linear" x1="21.1726" y1="21.0186" x2="20.5098" y2="16.0777" gradientUnits="userSpaceOnUse"><stop stop-color="#E8EAF6"></stop><stop offset="1" stop-color="white" stop-opacity="0"></stop></linearGradient><linearGradient id="paint2_linear" x1="25.895" y1="13.3672" x2="23.4567" y2="13.4197" gradientUnits="userSpaceOnUse"><stop stop-color="#E8EAF6"></stop><stop offset="1" stop-color="white" stop-opacity="0"></stop></linearGradient><linearGradient id="paint3_linear" x1="28.5008" y1="-9.71219" x2="44.3327" y2="-2.34435" gradientUnits="userSpaceOnUse"><stop stop-color="#E8EAF6"></stop><stop offset="1" stop-color="white"></stop></linearGradient><linearGradient id="paint4_linear" x1="33.9245" y1="21.0185" x2="33.2618" y2="16.0776" gradientUnits="userSpaceOnUse"><stop stop-color="#E8EAF6"></stop><stop offset="1" stop-color="white" stop-opacity="0"></stop></linearGradient><linearGradient id="paint5_linear" x1="38.6469" y1="13.3672" x2="36.2086" y2="13.4196" gradientUnits="userSpaceOnUse"><stop stop-color="#E8EAF6"></stop><stop offset="1" stop-color="white" stop-opacity="0"></stop></linearGradient><linearGradient id="paint6_linear" x1="41.2527" y1="-9.71219" x2="57.0847" y2="-2.34435" gradientUnits="userSpaceOnUse"><stop stop-color="#E8EAF6"></stop><stop offset="1" stop-color="white"></stop></linearGradient><linearGradient id="paint7_linear" x1="46.6765" y1="21.0185" x2="46.0137" y2="16.0776" gradientUnits="userSpaceOnUse"><stop stop-color="#E8EAF6"></stop><stop offset="1" stop-color="white" stop-opacity="0"></stop></linearGradient><linearGradient id="paint8_linear" x1="51.3989" y1="13.3672" x2="48.9606" y2="13.4196" gradientUnits="userSpaceOnUse"><stop stop-color="#E8EAF6"></stop><stop offset="1" stop-color="white" stop-opacity="0"></stop></linearGradient><linearGradient id="paint9_linear" x1="24.3123" y1="3.12924" x2="40.1442" y2="10.4971" gradientUnits="userSpaceOnUse"><stop stop-color="#E8EAF6"></stop><stop offset="1" stop-color="white"></stop></linearGradient><linearGradient id="paint10_linear" x1="29.736" y1="33.86" x2="29.0733" y2="28.9191" gradientUnits="userSpaceOnUse"><stop stop-color="#E8EAF6"></stop><stop offset="1" stop-color="white" stop-opacity="0"></stop></linearGradient><linearGradient id="paint11_linear" x1="34.4584" y1="26.2086" x2="32.0201" y2="26.2611" gradientUnits="userSpaceOnUse"><stop stop-color="#E8EAF6"></stop><stop offset="1" stop-color="white" stop-opacity="0"></stop></linearGradient><linearGradient id="paint12_linear" x1="37.0623" y1="3.12924" x2="52.8942" y2="10.4971" gradientUnits="userSpaceOnUse"><stop stop-color="#E8EAF6"></stop><stop offset="1" stop-color="white"></stop></linearGradient><linearGradient id="paint13_linear" x1="42.486" y1="33.86" x2="41.8233" y2="28.9191" gradientUnits="userSpaceOnUse"><stop stop-color="#E8EAF6"></stop><stop offset="1" stop-color="white" stop-opacity="0"></stop></linearGradient><linearGradient id="paint14_linear" x1="47.2084" y1="26.2086" x2="44.7701" y2="26.2611" gradientUnits="userSpaceOnUse"><stop stop-color="#E8EAF6"></stop><stop offset="1" stop-color="white" stop-opacity="0"></stop></linearGradient><linearGradient id="paint15_linear" x1="15.7488" y1="41.652" x2="31.5808" y2="49.0199" gradientUnits="userSpaceOnUse"><stop stop-color="#E8EAF6"></stop><stop offset="1" stop-color="white"></stop></linearGradient><linearGradient id="paint16_linear" x1="21.1726" y1="72.3828" x2="20.5098" y2="67.4419" gradientUnits="userSpaceOnUse"><stop stop-color="#E8EAF6"></stop><stop offset="1" stop-color="white" stop-opacity="0"></stop></linearGradient><linearGradient id="paint17_linear" x1="25.895" y1="64.7314" x2="23.4567" y2="64.7839" gradientUnits="userSpaceOnUse"><stop stop-color="#E8EAF6"></stop><stop offset="1" stop-color="white" stop-opacity="0"></stop></linearGradient><linearGradient id="paint18_linear" x1="53.1074" y1="-7.70053" x2="69.7114" y2="15.4803" gradientUnits="userSpaceOnUse"><stop stop-color="#E8EAF6"></stop><stop offset="1" stop-color="white"></stop></linearGradient><linearGradient id="paint19_linear" x1="66.8962" y1="18.3423" x2="66.706" y2="14.0883" gradientUnits="userSpaceOnUse"><stop stop-color="#E8EAF6"></stop><stop offset="1" stop-color="white" stop-opacity="0"></stop></linearGradient><linearGradient id="paint20_linear" x1="78.902" y1="11.8582" x2="72.7259" y2="12.2566" gradientUnits="userSpaceOnUse"><stop stop-color="#E8EAF6"></stop><stop offset="1" stop-color="white" stop-opacity="0"></stop></linearGradient><linearGradient id="paint21_linear" x1="-8.52939" y1="7.82774" x2="8.07128" y2="31.006" gradientUnits="userSpaceOnUse"><stop stop-color="#E8EAF6"></stop><stop offset="1" stop-color="white"></stop></linearGradient><linearGradient id="paint22_linear" x1="5.25833" y1="33.8662" x2="5.06818" y2="29.6129" gradientUnits="userSpaceOnUse"><stop stop-color="#E8EAF6"></stop><stop offset="1" stop-color="white" stop-opacity="0"></stop></linearGradient><linearGradient id="paint23_linear" x1="17.2632" y1="27.3832" x2="11.0876" y2="27.7816" gradientUnits="userSpaceOnUse"><stop stop-color="#E8EAF6"></stop><stop offset="1" stop-color="white" stop-opacity="0"></stop></linearGradient><linearGradient id="paint24_linear" x1="-21.1553" y1="-40.6185" x2="46.224" y2="53.4509" gradientUnits="userSpaceOnUse"><stop stop-color="#E8EAF6"></stop><stop offset="1" stop-color="white"></stop></linearGradient><linearGradient id="paint25_linear" x1="34.801" y1="65.0645" x2="34.0291" y2="47.8015" gradientUnits="userSpaceOnUse"><stop stop-color="#E8EAF6"></stop><stop offset="1" stop-color="white" stop-opacity="0"></stop></linearGradient><linearGradient id="paint26_linear" x1="83.5215" y1="38.7516" x2="58.4585" y2="40.3686" gradientUnits="userSpaceOnUse"><stop stop-color="#E8EAF6"></stop><stop offset="1" stop-color="white" stop-opacity="0"></stop></linearGradient></defs></svg> 