<?xml version="1.0" encoding="iso-8859-1"?>
<!-- Generator: Adobe Illustrator 19.0.0, SVG Export Plug-In . SVG Version: 6.00 Build 0)  -->
<svg version="1.1" id="Layer_1" xmlns="http://www.w3.org/2000/svg" xmlns:xlink="http://www.w3.org/1999/xlink" x="0px" y="0px"
	 viewBox="0 0 512 512" style="enable-background:new 0 0 512 512;" xml:space="preserve">
<g>
	<rect x="125.817" y="161.684" style="fill:#CFF09E;" width="86.609" height="296.421"/>
	<rect x="299.048" y="53.891" style="fill:#CFF09E;" width="86.609" height="404.224"/>
</g>
<path style="fill:#507C5C;" d="M498.526,444.636h-11.795V202.109c0-7.44-6.034-13.474-13.474-13.474
	c-7.44,0-13.474,6.034-13.474,13.474v242.526h-59.667V134.741h73.141c7.44,0,13.474-6.034,13.474-13.474
	c0-7.44-6.034-13.474-13.474-13.474h-74.124V53.891c0-7.44-6.034-13.474-13.474-13.474h-86.614c-7.44,0-13.474,6.034-13.474,13.474
	v134.745h-59.668v-26.947c0-7.44-6.034-13.474-13.474-13.474h-73.6V74.101c0-7.44-6.034-13.474-13.474-13.474H38.742
	c-7.44,0-13.474,6.034-13.474,13.474V368.49c0,7.44,6.034,13.474,13.474,13.474s13.474-6.034,13.474-13.474V87.575h59.667v357.061
	H38.742H13.474C6.034,444.636,0,450.669,0,458.109c0,7.44,6.034,13.474,13.474,13.474h485.053c7.44,0,13.474-6.034,13.474-13.474
	C512,450.669,505.967,444.636,498.526,444.636z M139.29,175.162h59.667v26.947v242.526H139.29V175.162z M225.904,215.583h59.668
	v229.053h-59.668V215.583z M312.519,444.636V202.109V67.364h59.667v377.271L312.519,444.636L312.519,444.636z"/>
<g>
</g>
<g>
</g>
<g>
</g>
<g>
</g>
<g>
</g>
<g>
</g>
<g>
</g>
<g>
</g>
<g>
</g>
<g>
</g>
<g>
</g>
<g>
</g>
<g>
</g>
<g>
</g>
<g>
</g>
</svg>
