<?xml version="1.0" encoding="iso-8859-1"?>
<!-- Generator: Adobe Illustrator 19.0.0, SVG Export Plug-In . SVG Version: 6.00 Build 0)  -->
<svg version="1.1" id="Layer_1" xmlns="http://www.w3.org/2000/svg" xmlns:xlink="http://www.w3.org/1999/xlink" x="0px" y="0px"
	 viewBox="0 0 512 512" style="enable-background:new 0 0 512 512;" xml:space="preserve">
<path style="fill:#FFC61B;" d="M452.656,499.209c-7.881,0-14.269-6.39-14.269-14.269V234.027l-32.225,30.763
	c-5.701,5.442-14.732,5.233-20.176-0.468c-5.441-5.701-5.233-14.733,0.468-20.175l56.347-53.791
	c4.131-3.944,10.215-5.046,15.467-2.797c5.251,2.246,8.656,7.407,8.656,13.118V484.94
	C466.925,492.819,460.537,499.209,452.656,499.209z"/>
<g>
	<path style="fill:#FEE187;" d="M338.188,309.953c-2.499,2.386-5.849,3.683-9.302,3.584c-3.455-0.093-6.729-1.56-9.097-4.075
		l-51.775-54.994l-21.981,22.543V484.94h103.312V299.302L338.188,309.953z"/>
	<polygon style="fill:#FEE187;" points="121.207,318.315 37.615,404.139 37.615,484.94 140.927,484.94 140.927,340.529 	"/>
</g>
<path style="fill:#FFC61B;" d="M396.309,470.671h-32.695V299.302c0-0.645-0.059-1.276-0.141-1.899
	c-0.02-0.148-0.043-0.295-0.067-0.444c-0.098-0.595-0.224-1.179-0.394-1.747c-0.007-0.023-0.011-0.047-0.019-0.07
	c-0.184-0.606-0.417-1.19-0.676-1.759c-0.051-0.114-0.107-0.225-0.163-0.338c-0.251-0.512-0.525-1.01-0.833-1.485
	c-0.033-0.05-0.06-0.103-0.093-0.153c-0.337-0.507-0.711-0.983-1.107-1.441c-0.098-0.113-0.2-0.221-0.301-0.332
	c-0.367-0.397-0.751-0.775-1.16-1.127c-0.061-0.053-0.118-0.111-0.181-0.164c-0.471-0.392-0.972-0.746-1.49-1.077
	c-0.116-0.073-0.233-0.143-0.35-0.213c-0.541-0.323-1.097-0.622-1.681-0.872l0,0l0,0c-0.588-0.253-1.201-0.454-1.828-0.625
	c-0.127-0.036-0.255-0.067-0.384-0.098c-0.559-0.137-1.13-0.248-1.714-0.317c-0.054-0.006-0.108-0.019-0.163-0.024
	c-0.502-0.053-1.01-0.084-1.525-0.084c-0.104,0-0.205,0.013-0.31,0.016c-0.161,0.003-0.321,0.016-0.481,0.024
	c-0.511,0.029-1.015,0.081-1.51,0.163c-0.116,0.019-0.23,0.031-0.345,0.053c-0.616,0.116-1.219,0.27-1.804,0.462
	c-0.086,0.029-0.168,0.063-0.253,0.093c-0.522,0.183-1.029,0.395-1.521,0.635c-0.107,0.051-0.215,0.1-0.322,0.156
	c-0.548,0.284-1.076,0.598-1.58,0.949c-0.093,0.064-0.181,0.137-0.274,0.204c-0.44,0.321-0.86,0.668-1.26,1.036
	c-0.061,0.057-0.133,0.101-0.194,0.16l-10.208,9.747l-50.879-54.041c-2.667-2.832-6.374-4.453-10.264-4.489
	c-3.843-0.016-7.626,1.523-10.341,4.308l-21.981,22.543c-0.305,0.314-0.592,0.642-0.866,0.98c-0.334,0.287-0.661,0.585-0.972,0.906
	l-54.225,56.092c-5.478,5.666-5.325,14.699,0.341,20.177c5.666,5.478,14.702,5.325,20.177-0.341l29.697-30.718v156.528h-74.773
	v-130.14c0-0.461-0.026-0.92-0.07-1.374c-0.019-0.194-0.053-0.382-0.078-0.574c-0.036-0.254-0.067-0.508-0.116-0.759
	c-0.044-0.231-0.103-0.458-0.158-0.685c-0.05-0.205-0.098-0.41-0.157-0.612c-0.07-0.238-0.15-0.471-0.231-0.703
	c-0.066-0.187-0.131-0.374-0.204-0.558c-0.091-0.228-0.19-0.452-0.293-0.675c-0.084-0.186-0.171-0.368-0.264-0.549
	c-0.107-0.21-0.22-0.415-0.337-0.619c-0.108-0.188-0.221-0.372-0.337-0.555c-0.12-0.187-0.241-0.372-0.37-0.554
	c-0.133-0.188-0.271-0.371-0.414-0.554c-0.13-0.167-0.261-0.332-0.398-0.492c-0.059-0.068-0.11-0.141-0.168-0.208l-19.719-22.215
	c-2.631-2.964-6.378-4.7-10.341-4.792c-3.974-0.113-7.787,1.47-10.552,4.309L27.4,394.188c-2.596,2.664-4.047,6.237-4.047,9.957
	v80.8c0,7.88,6.388,14.269,14.269,14.269h103.31h103.312c0.303,0,0.599-0.027,0.898-0.046c0.298,0.019,0.595,0.046,0.898,0.046
	h103.312h46.965c7.881,0,14.269-6.39,14.269-14.269C410.585,477.066,404.19,470.671,396.309,470.671z M51.884,409.94l68.837-70.676
	l5.935,6.687v124.72H51.884V409.94z M260.302,282.815l7.531-7.723l41.567,44.151c4.94,5.247,11.904,8.365,19.078,8.556
	c2.24,0.057,4.455-0.148,6.597-0.615v143.484h-74.773V282.815z"/>
<polygon style="fill:#FEE187;" points="407.582,51.21 497.729,27.055 473.575,117.203 "/>
<path style="fill:#FFC61B;" d="M507.82,16.965c-3.606-3.603-8.861-5.014-13.784-3.693l-90.147,24.155
	c-4.924,1.32-8.77,5.166-10.09,10.09c-1.32,4.923,0.089,10.178,3.693,13.783l23.831,23.831l-91.555,87.464l-51.201-54.382
	c-2.667-2.832-6.374-4.453-10.264-4.489c-3.878-0.006-7.626,1.523-10.341,4.308l-95.528,97.966l-30.114-33.924
	c-2.631-2.964-6.378-4.7-10.341-4.792c-3.988-0.098-7.787,1.468-10.552,4.309L4.048,291.838c-5.499,5.645-5.38,14.679,0.265,20.178
	c2.774,2.704,6.366,4.048,9.956,4.048c3.716,0,7.427-1.443,10.224-4.312l96.672-99.254l30.11,33.92
	c2.631,2.964,6.376,4.7,10.337,4.792c3.958,0.108,7.784-1.465,10.551-4.304L268,148.622l50.846,54.005
	c2.607,2.768,6.21,4.382,10.011,4.483c3.766,0.118,7.484-1.318,10.234-3.947l102.419-97.845l21.976,21.976
	c2.711,2.71,6.356,4.18,10.09,4.18c1.231,0,2.471-0.158,3.693-0.487c4.924-1.32,8.77-5.166,10.09-10.09l24.155-90.147
	C512.833,25.825,511.424,20.571,507.82,16.965z M466.189,89.636L435.15,58.598l42.4-11.361L466.189,89.636z"/>
<g>
</g>
<g>
</g>
<g>
</g>
<g>
</g>
<g>
</g>
<g>
</g>
<g>
</g>
<g>
</g>
<g>
</g>
<g>
</g>
<g>
</g>
<g>
</g>
<g>
</g>
<g>
</g>
<g>
</g>
</svg>
